# xmcd
#
# Track frame offsets:
# 150
# 16036
# 30730
# 46085
# 68123
# 84928
# 102289
# 118279
# 131371
# 145944
# 160851
# 175410
# 188739
# 204623
# 217343
# 228319
# 245948
# 263461
# 278428
# 294891
# 306880
# 318162
# 333250
#
# Disc length: 4654 seconds
#
#
# Revision: 0
# Processed by: cddbd v1.5.2PL0 Copyright (c) Steve Scherf et al.
# Submitted via: FreeRIP 2.96 
#
DISCID=42122c17
DTITLE=Sucessos Sertanejos 2007 - vol.3 - Sucessos Sertanejos 2007
DYEAR=2007
DGENRE=Country
TTITLE0=Nóis enrola, mas num casa - Dany and Diego
TTITLE1=Tô com a maior moral - Zezé di Camargo and Luciano
TTITLE2=Nem com reza - Rio Negro and Solimões
TTITLE3=Furdunço no piseiro - Teodoro and Sampaio
TTITLE4=Tô bonito tô beleza - Chico Amado and Xodó
TTITLE5=Que bicho que é - Gino and Geno
TTITLE6=Viola na cachola - Mayck and Lyan
TTITLE7=Se fô desse jeito - Ataíde and Alexandre
TTITLE8=Aqui só tem filé - Dany and Diego
TTITLE9=Recaída - Bruno and Marrone
TTITLE10=O olhar dessa malvada - Gino and Geno
TTITLE11=Fim de semana - Rio Negro and Solimões
TTITLE12=Quanto mais muié, mió - Chico Amado and Xodó
TTITLE13=Que seja bem vinda - Zezé di Camargo and Luciano
TTITLE14=O preço da glória - Mayck and Lyan
TTITLE15=La bella luna - Rio Negro and Solmões
TTITLE16=Você não vai me ver chorar - Ataíde and Alexandre
TTITLE17=Eu e a vanera - Xodózinho
TTITLE18=Alvorada no rancho - Xodózinho
TTITLE19=Bão tamém - César Menótti and Fabiano
TTITLE20=Paixão mineira - César Menótti and Fabiano
TTITLE21=Lugar melhor que BH Magia e mistério - César Menótti and Fabiano
TTITLE22=A costela - Ney and Nando
EXTD=
EXTT0=
EXTT1=
EXTT2=
EXTT3=
EXTT4=
EXTT5=
EXTT6=
EXTT7=
EXTT8=
EXTT9=
EXTT10=
EXTT11=
EXTT12=
EXTT13=
EXTT14=
EXTT15=
EXTT16=
EXTT17=
EXTT18=
EXTT19=
EXTT20=
EXTT21=
EXTT22=
PLAYORDER=
